<?xml version="1.0" encoding="UTF-8" standalone="no"?>
<svg xmlns:dc="http://purl.org/dc/elements/1.1/" xmlns:cc="http://creativecommons.org/ns#" xmlns:rdf="http://www.w3.org/1999/02/22-rdf-syntax-ns#" xmlns:svg="http://www.w3.org/2000/svg" xmlns="http://www.w3.org/2000/svg" xmlns:sodipodi="http://sodipodi.sourceforge.net/DTD/sodipodi-0.dtd" xmlns:inkscape="http://www.inkscape.org/namespaces/inkscape" width="130pt" height="64pt" viewBox="0.00 0.00 130.00 64.00" id="svg4136" version="1.1" inkscape:version="0.91 r13725" sodipodi:docname="Biclique_K_3_5.svg">
  <metadata id="metadata4190">
    <rdf:RDF>
      <cc:Work rdf:about="">
        <dc:format>image/svg+xml</dc:format>
        <dc:type rdf:resource="http://purl.org/dc/dcmitype/StillImage"/>
      </cc:Work>
    </rdf:RDF>
  </metadata>
  <defs id="defs4188"/>
  <sodipodi:namedview pagecolor="#ffffff" bordercolor="#666666" borderopacity="1" objecttolerance="10" gridtolerance="10" guidetolerance="10" inkscape:pageopacity="0" inkscape:pageshadow="2" inkscape:window-width="1536" inkscape:window-height="801" id="namedview4186" showgrid="false" inkscape:zoom="6.5292308" inkscape:cx="81.25" inkscape:cy="40" inkscape:window-x="-8" inkscape:window-y="-8" inkscape:window-maximized="1" inkscape:current-layer="svg4136"/>
  <circle id="circle4140" r="5.4000001" cy="9" cx="121" style="fill:#ff0000;stroke:#000000;fill-opacity:1"/>
  <circle id="circle4142" r="5.4000001" cy="55" cx="37" style="fill:#0000ff;stroke:#000000"/>
  <path inkscape:connector-curvature="0" id="path4144" d="M 116,12 C 101,20 57,44 42,52" style="fill:none;stroke:#000000"/>
  <circle id="circle4146" r="5.4000001" cy="55" cx="65" style="fill:#0000ff;stroke:#000000"/>
  <path inkscape:connector-curvature="0" id="path4148" d="M 117,13 C 106,21 79,43 69,51" style="fill:none;stroke:#000000"/>
  <circle id="circle4150" r="5.4000001" cy="55" cx="93" style="fill:#0000ff;stroke:#000000"/>
  <path inkscape:connector-curvature="0" id="path4152" d="m 118,14 c -5,9 -17,28 -22,36" style="fill:none;stroke:#000000"/>
  <circle id="circle4154" r="5.4000001" cy="9" cx="9" style="fill:#ff0000;stroke:#000000;fill-opacity:1"/>
  <path inkscape:connector-curvature="0" id="path4156" d="m 12,14 c 5,9 17,28 22,36" style="fill:none;stroke:#000000"/>
  <path inkscape:connector-curvature="0" id="path4158" d="m 13,13 c 11,8 38,30 48,38" style="fill:none;stroke:#000000"/>
  <path inkscape:connector-curvature="0" id="path4160" d="m 14,12 c 15,8 59,32 74,40" style="fill:none;stroke:#000000"/>
  <circle id="circle4162" r="5.4000001" cy="9" cx="37" style="fill:#ff0000;stroke:#000000;fill-opacity:1"/>
  <path inkscape:connector-curvature="0" id="path4164" d="m 37,15 c 0,9 0,26 0,34" style="fill:none;stroke:#000000"/>
  <path inkscape:connector-curvature="0" id="path4166" d="m 40,14 c 5,9 17,28 22,36" style="fill:none;stroke:#000000"/>
  <path inkscape:connector-curvature="0" id="path4168" d="m 41,13 c 11,8 38,30 48,38" style="fill:none;stroke:#000000"/>
  <circle id="circle4170" r="5.4000001" cy="9" cx="65" style="fill:#ff0000;stroke:#000000;fill-opacity:1"/>
  <path inkscape:connector-curvature="0" id="path4172" d="M 62,14 C 57,23 45,42 40,50" style="fill:none;stroke:#000000"/>
  <path inkscape:connector-curvature="0" id="path4174" d="m 65,15 c 0,9 0,26 0,34" style="fill:none;stroke:#000000"/>
  <path inkscape:connector-curvature="0" id="path4176" d="m 68,14 c 5,9 17,28 22,36" style="fill:none;stroke:#000000"/>
  <circle id="circle4178" r="5.4000001" cy="9" cx="93" style="fill:#ff0000;stroke:#000000;fill-opacity:1"/>
  <path inkscape:connector-curvature="0" id="path4180" d="M 89,13 C 78,21 51,43 41,51" style="fill:none;stroke:#000000"/>
  <path inkscape:connector-curvature="0" id="path4182" d="M 90,14 C 85,23 73,42 68,50" style="fill:none;stroke:#000000"/>
  <path inkscape:connector-curvature="0" id="path4184" d="m 93,15 c 0,9 0,26 0,34" style="fill:none;stroke:#000000"/>
</svg>