<!DOCTYPE svg PUBLIC "-//W3C//DTD SVG 1.1//EN" "http://www.w3.org/Graphics/SVG/1.1/DTD/svg11.dtd">
<!-- Uploaded to: SVG Repo, www.svgrepo.com, Transformed by: SVG Repo Mixer Tools -->
<svg version="1.1" id="Layer_1" xmlns="http://www.w3.org/2000/svg" xmlns:xlink="http://www.w3.org/1999/xlink" viewBox="0 0 512 512" xml:space="preserve" width="800px" height="800px" fill="#5e5c64" stroke="#5e5c64">
<g id="SVGRepo_bgCarrier" stroke-width="0"/>
<g id="SVGRepo_tracerCarrier" stroke-linecap="round" stroke-linejoin="round" stroke="#CCCCCC" stroke-width="2.048"/>
<g id="SVGRepo_iconCarrier"> <rect x="3" y="64.08" style="fill:#f6f5f4;" width="506" height="383.896"/> <g> <path style="fill:#CCCCCC;" d="M506,67.048v377.904H6V67.048H506 M512,61.048H0v389.904h512V61.048z"/> <rect x="3" y="127.84" style="fill:#CCCCCC;" width="505.84" height="6"/> </g> <circle cx="48.08" cy="98.504" r="12.584"/> <circle style="fill:#33d17a;" cx="89.312" cy="98.504" r="12.584"/> <circle style="fill:#e01b24;" cx="130.568" cy="98.504" r="12.584"/> <path style="fill:#33d17a;" d="M83.84,280.424l117.456-54.568v25.936l-88.8,38.904v0.504l88.8,38.904V356L83.84,301.472V280.424z"/> <path d="M219.424,365.824l52.368-177.408h24.712l-52.368,177.408H219.424z"/> <path style="fill:#33d17a;" d="M428.16,302.2L310.712,356v-25.904l90.784-38.896v-0.496L310.712,251.8v-25.944l117.448,53.84V302.2z "/> </g>
</svg>